<svg width="20" height="27" viewBox="0 0 20 27" fill="none" xmlns="http://www.w3.org/2000/svg">
<path d="M9.91375 10.3184C9.71906 10.5853 9.66656 11.0316 10.0866 11.0578C10.5044 11.0819 19.0444 11.0184 19.0444 11.0184C19.0444 11.0184 12.9434 16.625 11.0972 18.2984C9.25094 19.9719 3.13687 25.3925 2.72562 25.7753C2.32312 26.1516 1.95781 26.4972 1.80906 26.4491C1.785 26.4425 1.75437 26.3134 2.32969 25.3662C2.85469 24.5022 7.89469 16.0562 8.09156 15.7369C8.28844 15.4175 8.46125 15.1462 8.55969 14.9975C8.65812 14.8487 8.9775 14.0372 8.3125 14.0372C7.6475 14.0372 0 14.2341 0 14.2341C0 14.2341 5.28281 9.75187 6.80969 8.54656C8.33656 7.34125 16.9903 0 17.2812 0C17.5722 0 10.1106 10.0494 9.91375 10.3184Z" fill="#FFC927"/>
</svg>
