<svg width="19" height="24" viewBox="0 0 19 24" fill="none" xmlns="http://www.w3.org/2000/svg">
<path d="M3.6369 7.17419C3.52557 8.36169 3.44744 10.4633 4.14862 11.3578C4.14862 11.3578 3.81854 9.04919 6.77752 6.15271C7.96893 4.98669 8.24432 3.40075 7.8283 2.2113C7.59198 1.53747 7.16034 0.980831 6.78534 0.592159C6.56659 0.363643 6.73455 -0.01331 7.05291 0.000361829C8.97869 0.0862993 12.0998 0.621455 13.426 3.94958C14.008 5.41052 14.051 6.92028 13.7736 8.45544C13.5978 9.43591 12.9728 11.6156 14.3986 11.8832C15.4162 12.0746 15.9084 11.266 16.1291 10.684C16.2209 10.4418 16.5392 10.3812 16.7111 10.5746C18.4299 12.5297 18.5764 14.8324 18.2209 16.8148C17.5334 20.6468 13.6525 23.4359 9.79705 23.4359C4.98065 23.4359 1.14666 20.68 0.152523 15.6918C-0.247868 13.6781 -0.0447426 9.69372 3.06073 6.88122C3.29119 6.67028 3.66815 6.85778 3.6369 7.17419Z" fill="url(#paint0_radial_1_267)"/>
<path d="M11.5568 14.3402C9.78145 12.0551 10.5764 9.44766 11.0119 8.4086C11.0705 8.27188 10.9143 8.14297 10.7912 8.22696C10.0275 8.74649 8.46309 9.96915 7.73457 11.6898C6.74824 14.016 6.81855 15.1547 7.40254 16.5453C7.7541 17.3832 7.3459 17.5609 7.14082 17.5922C6.9416 17.6234 6.75801 17.4906 6.61152 17.352C6.19011 16.9474 5.88981 16.4334 5.74434 15.8676C5.71309 15.7465 5.55488 15.7133 5.48262 15.8129C4.93574 16.5688 4.65254 17.7816 4.63887 18.6391C4.5959 21.2895 6.78535 23.4379 9.43379 23.4379C12.7717 23.4379 15.2033 19.7465 13.2854 16.6606C12.7287 15.7621 12.2053 15.1742 11.5568 14.3402Z" fill="url(#paint1_radial_1_267)"/>
<defs>
<radialGradient id="paint0_radial_1_267" cx="0" cy="0" r="1" gradientTransform="matrix(-13.7865 -0.0598335 -0.0982979 22.6209 8.8431 23.4966)" gradientUnits="userSpaceOnUse">
<stop offset="0.314" stop-color="#FF9800"/>
<stop offset="0.662" stop-color="#FF6D00"/>
<stop offset="0.972" stop-color="#F44336"/>
</radialGradient>
<radialGradient id="paint1_radial_1_267" cx="0" cy="0" r="1" gradientTransform="matrix(-0.1457 14.4243 10.8554 0.109636 9.61737 9.77742)" gradientUnits="userSpaceOnUse">
<stop offset="0.214" stop-color="#FFF176"/>
<stop offset="0.328" stop-color="#FFF27D"/>
<stop offset="0.487" stop-color="#FFF48F"/>
<stop offset="0.672" stop-color="#FFF7AD"/>
<stop offset="0.793" stop-color="#FFF9C4"/>
<stop offset="0.822" stop-color="#FFF8BD" stop-opacity="0.804"/>
<stop offset="0.863" stop-color="#FFF6AB" stop-opacity="0.529"/>
<stop offset="0.91" stop-color="#FFF38D" stop-opacity="0.209"/>
<stop offset="0.941" stop-color="#FFF176" stop-opacity="0"/>
</radialGradient>
</defs>
</svg>
