<svg width="21" height="22" viewBox="0 0 21 22" fill="none" xmlns="http://www.w3.org/2000/svg">
<path d="M12.9668 11.0541C13.3993 11.2555 13.8966 11.5072 13.7452 12.9096C13.2911 14.1394 12.4263 15.1894 10.2425 15.1103C8.49115 14.686 6.58844 14.1897 6.73979 10.7089C6.89115 8.91095 8.77223 6.41541 11.9722 6.39383C16.5993 6.45856 18.8695 10.5363 18.6749 13.6863C18.4371 18.174 14.8407 20.5041 9.89655 20.9356C7.2443 20.9356 4.16682 19.4901 2.76142 17.3109C1.01006 15.0455 0.332589 10.3781 1.81006 7.3C3.37403 4.00616 6.32487 1.93308 9.81006 1.86301C13.0461 1.79829 15.1722 3.0137 16.383 3.76164L19.2371 1" stroke="#568D0F" stroke-width="2" stroke-linecap="round" stroke-linejoin="round"/>
</svg>
